<mxfile host="app.diagrams.net" modified="2023-04-18T21:53:24.938Z" agent="Mozilla/5.0 (Windows NT 10.0; Win64; x64) AppleWebKit/537.36 (KHTML, like Gecko) Chrome/112.0.0.0 Safari/537.36" etag="lPzbFmRWNDwuMm8Gpthc" version="21.1.8" type="github">
  <diagram id="C5RBs43oDa-KdzZeNtuy" name="Page-1">
    <mxGraphModel dx="3760" dy="2566" grid="1" gridSize="10" guides="1" tooltips="1" connect="1" arrows="1" fold="1" page="1" pageScale="1" pageWidth="827" pageHeight="1169" math="0" shadow="0">
      <root>
        <mxCell id="WIyWlLk6GJQsqaUBKTNV-0" />
        <mxCell id="WIyWlLk6GJQsqaUBKTNV-1" parent="WIyWlLk6GJQsqaUBKTNV-0" />
        <mxCell id="VR8ZNbH8dyByt77pERlR-14" style="edgeStyle=orthogonalEdgeStyle;rounded=0;orthogonalLoop=1;jettySize=auto;html=1;" parent="WIyWlLk6GJQsqaUBKTNV-1" source="VR8ZNbH8dyByt77pERlR-1" target="VR8ZNbH8dyByt77pERlR-12" edge="1">
          <mxGeometry relative="1" as="geometry">
            <Array as="points">
              <mxPoint x="950" y="100" />
              <mxPoint x="950" y="100" />
            </Array>
          </mxGeometry>
        </mxCell>
        <mxCell id="VR8ZNbH8dyByt77pERlR-1" value="Petunjuk Permainan" style="rounded=0;whiteSpace=wrap;html=1;" parent="WIyWlLk6GJQsqaUBKTNV-1" vertex="1">
          <mxGeometry x="890" y="-40" width="120" height="60" as="geometry" />
        </mxCell>
        <mxCell id="VR8ZNbH8dyByt77pERlR-15" style="edgeStyle=orthogonalEdgeStyle;rounded=0;orthogonalLoop=1;jettySize=auto;html=1;exitX=0.5;exitY=1;exitDx=0;exitDy=0;" parent="WIyWlLk6GJQsqaUBKTNV-1" source="VR8ZNbH8dyByt77pERlR-12" edge="1">
          <mxGeometry relative="1" as="geometry">
            <mxPoint x="950" y="250" as="targetPoint" />
          </mxGeometry>
        </mxCell>
        <mxCell id="VR8ZNbH8dyByt77pERlR-12" value="Pemilihan Level" style="rounded=0;whiteSpace=wrap;html=1;" parent="WIyWlLk6GJQsqaUBKTNV-1" vertex="1">
          <mxGeometry x="890" y="130" width="120" height="60" as="geometry" />
        </mxCell>
        <mxCell id="VR8ZNbH8dyByt77pERlR-18" style="edgeStyle=orthogonalEdgeStyle;rounded=0;orthogonalLoop=1;jettySize=auto;html=1;" parent="WIyWlLk6GJQsqaUBKTNV-1" source="VR8ZNbH8dyByt77pERlR-16" target="VR8ZNbH8dyByt77pERlR-17" edge="1">
          <mxGeometry relative="1" as="geometry" />
        </mxCell>
        <mxCell id="VR8ZNbH8dyByt77pERlR-16" value="Level 1" style="rounded=0;whiteSpace=wrap;html=1;" parent="WIyWlLk6GJQsqaUBKTNV-1" vertex="1">
          <mxGeometry x="890" y="250" width="120" height="60" as="geometry" />
        </mxCell>
        <mxCell id="VR8ZNbH8dyByt77pERlR-20" style="edgeStyle=orthogonalEdgeStyle;rounded=0;orthogonalLoop=1;jettySize=auto;html=1;entryX=0.5;entryY=0;entryDx=0;entryDy=0;" parent="WIyWlLk6GJQsqaUBKTNV-1" source="VR8ZNbH8dyByt77pERlR-17" target="VR8ZNbH8dyByt77pERlR-19" edge="1">
          <mxGeometry relative="1" as="geometry" />
        </mxCell>
        <mxCell id="VR8ZNbH8dyByt77pERlR-29" style="edgeStyle=orthogonalEdgeStyle;rounded=0;orthogonalLoop=1;jettySize=auto;html=1;" parent="WIyWlLk6GJQsqaUBKTNV-1" source="VR8ZNbH8dyByt77pERlR-17" target="VR8ZNbH8dyByt77pERlR-28" edge="1">
          <mxGeometry relative="1" as="geometry" />
        </mxCell>
        <mxCell id="VR8ZNbH8dyByt77pERlR-17" value="Tebakan" style="rounded=0;whiteSpace=wrap;html=1;" parent="WIyWlLk6GJQsqaUBKTNV-1" vertex="1">
          <mxGeometry x="890" y="350" width="120" height="60" as="geometry" />
        </mxCell>
        <mxCell id="VR8ZNbH8dyByt77pERlR-23" style="edgeStyle=orthogonalEdgeStyle;rounded=0;orthogonalLoop=1;jettySize=auto;html=1;entryX=0.5;entryY=0;entryDx=0;entryDy=0;" parent="WIyWlLk6GJQsqaUBKTNV-1" source="VR8ZNbH8dyByt77pERlR-19" target="VR8ZNbH8dyByt77pERlR-22" edge="1">
          <mxGeometry relative="1" as="geometry" />
        </mxCell>
        <mxCell id="VR8ZNbH8dyByt77pERlR-24" style="edgeStyle=orthogonalEdgeStyle;rounded=0;orthogonalLoop=1;jettySize=auto;html=1;entryX=0;entryY=0.5;entryDx=0;entryDy=0;" parent="WIyWlLk6GJQsqaUBKTNV-1" source="VR8ZNbH8dyByt77pERlR-19" target="VR8ZNbH8dyByt77pERlR-21" edge="1">
          <mxGeometry relative="1" as="geometry" />
        </mxCell>
        <mxCell id="VR8ZNbH8dyByt77pERlR-19" value="Apakah Jawaban&lt;br&gt;Benar?" style="rhombus;whiteSpace=wrap;html=1;" parent="WIyWlLk6GJQsqaUBKTNV-1" vertex="1">
          <mxGeometry x="1150" y="400" width="140" height="140" as="geometry" />
        </mxCell>
        <mxCell id="VR8ZNbH8dyByt77pERlR-27" style="edgeStyle=orthogonalEdgeStyle;rounded=0;orthogonalLoop=1;jettySize=auto;html=1;exitX=0.5;exitY=1;exitDx=0;exitDy=0;entryX=1;entryY=0.5;entryDx=0;entryDy=0;" parent="WIyWlLk6GJQsqaUBKTNV-1" source="VR8ZNbH8dyByt77pERlR-21" target="VR8ZNbH8dyByt77pERlR-25" edge="1">
          <mxGeometry relative="1" as="geometry" />
        </mxCell>
        <mxCell id="VR8ZNbH8dyByt77pERlR-21" value="Point +0" style="rounded=0;whiteSpace=wrap;html=1;" parent="WIyWlLk6GJQsqaUBKTNV-1" vertex="1">
          <mxGeometry x="1460" y="440" width="120" height="60" as="geometry" />
        </mxCell>
        <mxCell id="VR8ZNbH8dyByt77pERlR-26" style="edgeStyle=orthogonalEdgeStyle;rounded=0;orthogonalLoop=1;jettySize=auto;html=1;entryX=1;entryY=0.5;entryDx=0;entryDy=0;" parent="WIyWlLk6GJQsqaUBKTNV-1" source="VR8ZNbH8dyByt77pERlR-22" target="VR8ZNbH8dyByt77pERlR-25" edge="1">
          <mxGeometry relative="1" as="geometry">
            <mxPoint x="1220" y="840" as="targetPoint" />
            <Array as="points">
              <mxPoint x="1220" y="830" />
            </Array>
          </mxGeometry>
        </mxCell>
        <mxCell id="VR8ZNbH8dyByt77pERlR-22" value="Point + 20" style="rounded=0;whiteSpace=wrap;html=1;" parent="WIyWlLk6GJQsqaUBKTNV-1" vertex="1">
          <mxGeometry x="1160" y="670" width="120" height="60" as="geometry" />
        </mxCell>
        <mxCell id="VR8ZNbH8dyByt77pERlR-39" style="edgeStyle=orthogonalEdgeStyle;rounded=0;orthogonalLoop=1;jettySize=auto;html=1;entryX=0.5;entryY=0;entryDx=0;entryDy=0;" parent="WIyWlLk6GJQsqaUBKTNV-1" source="VR8ZNbH8dyByt77pERlR-25" target="VR8ZNbH8dyByt77pERlR-37" edge="1">
          <mxGeometry relative="1" as="geometry" />
        </mxCell>
        <mxCell id="VR8ZNbH8dyByt77pERlR-40" style="edgeStyle=orthogonalEdgeStyle;rounded=0;orthogonalLoop=1;jettySize=auto;html=1;exitX=0.5;exitY=1;exitDx=0;exitDy=0;" parent="WIyWlLk6GJQsqaUBKTNV-1" source="VR8ZNbH8dyByt77pERlR-25" target="VR8ZNbH8dyByt77pERlR-36" edge="1">
          <mxGeometry relative="1" as="geometry" />
        </mxCell>
        <mxCell id="VR8ZNbH8dyByt77pERlR-41" style="edgeStyle=orthogonalEdgeStyle;rounded=0;orthogonalLoop=1;jettySize=auto;html=1;exitX=0.5;exitY=1;exitDx=0;exitDy=0;entryX=0.5;entryY=0;entryDx=0;entryDy=0;" parent="WIyWlLk6GJQsqaUBKTNV-1" source="VR8ZNbH8dyByt77pERlR-25" target="VR8ZNbH8dyByt77pERlR-38" edge="1">
          <mxGeometry relative="1" as="geometry" />
        </mxCell>
        <mxCell id="VR8ZNbH8dyByt77pERlR-25" value="Finish" style="rounded=0;whiteSpace=wrap;html=1;" parent="WIyWlLk6GJQsqaUBKTNV-1" vertex="1">
          <mxGeometry x="890" y="800" width="120" height="60" as="geometry" />
        </mxCell>
        <mxCell id="VR8ZNbH8dyByt77pERlR-32" style="edgeStyle=orthogonalEdgeStyle;rounded=0;orthogonalLoop=1;jettySize=auto;html=1;exitX=0.5;exitY=1;exitDx=0;exitDy=0;entryX=0.5;entryY=0;entryDx=0;entryDy=0;" parent="WIyWlLk6GJQsqaUBKTNV-1" source="VR8ZNbH8dyByt77pERlR-28" target="VR8ZNbH8dyByt77pERlR-25" edge="1">
          <mxGeometry relative="1" as="geometry" />
        </mxCell>
        <mxCell id="VR8ZNbH8dyByt77pERlR-33" style="edgeStyle=orthogonalEdgeStyle;rounded=0;orthogonalLoop=1;jettySize=auto;html=1;entryX=0.5;entryY=0;entryDx=0;entryDy=0;" parent="WIyWlLk6GJQsqaUBKTNV-1" source="VR8ZNbH8dyByt77pERlR-28" target="VR8ZNbH8dyByt77pERlR-147" edge="1">
          <mxGeometry relative="1" as="geometry">
            <mxPoint x="400" y="1590" as="targetPoint" />
          </mxGeometry>
        </mxCell>
        <mxCell id="VR8ZNbH8dyByt77pERlR-28" value="Waktu = 0" style="rhombus;whiteSpace=wrap;html=1;" parent="WIyWlLk6GJQsqaUBKTNV-1" vertex="1">
          <mxGeometry x="875" y="468" width="150" height="150" as="geometry" />
        </mxCell>
        <mxCell id="VR8ZNbH8dyByt77pERlR-30" value="No" style="text;html=1;align=center;verticalAlign=middle;resizable=0;points=[];autosize=1;strokeColor=none;fillColor=none;" parent="WIyWlLk6GJQsqaUBKTNV-1" vertex="1">
          <mxGeometry x="1280" y="438" width="40" height="30" as="geometry" />
        </mxCell>
        <mxCell id="VR8ZNbH8dyByt77pERlR-31" value="Yes" style="text;html=1;align=center;verticalAlign=middle;resizable=0;points=[];autosize=1;strokeColor=none;fillColor=none;" parent="WIyWlLk6GJQsqaUBKTNV-1" vertex="1">
          <mxGeometry x="1180" y="528" width="40" height="30" as="geometry" />
        </mxCell>
        <mxCell id="VR8ZNbH8dyByt77pERlR-34" value="No" style="text;html=1;align=center;verticalAlign=middle;resizable=0;points=[];autosize=1;strokeColor=none;fillColor=none;" parent="WIyWlLk6GJQsqaUBKTNV-1" vertex="1">
          <mxGeometry x="959.92" y="610" width="40" height="30" as="geometry" />
        </mxCell>
        <mxCell id="VR8ZNbH8dyByt77pERlR-35" value="Yes" style="text;html=1;align=center;verticalAlign=middle;resizable=0;points=[];autosize=1;strokeColor=none;fillColor=none;" parent="WIyWlLk6GJQsqaUBKTNV-1" vertex="1">
          <mxGeometry x="835" y="510" width="40" height="30" as="geometry" />
        </mxCell>
        <mxCell id="VR8ZNbH8dyByt77pERlR-45" style="edgeStyle=orthogonalEdgeStyle;rounded=0;orthogonalLoop=1;jettySize=auto;html=1;exitX=0.5;exitY=1;exitDx=0;exitDy=0;" parent="WIyWlLk6GJQsqaUBKTNV-1" source="VR8ZNbH8dyByt77pERlR-36" target="VR8ZNbH8dyByt77pERlR-42" edge="1">
          <mxGeometry relative="1" as="geometry" />
        </mxCell>
        <mxCell id="VR8ZNbH8dyByt77pERlR-36" value="Skor &amp;lt; 60" style="rounded=0;whiteSpace=wrap;html=1;" parent="WIyWlLk6GJQsqaUBKTNV-1" vertex="1">
          <mxGeometry x="720" y="940" width="120" height="60" as="geometry" />
        </mxCell>
        <mxCell id="VR8ZNbH8dyByt77pERlR-46" style="edgeStyle=orthogonalEdgeStyle;rounded=0;orthogonalLoop=1;jettySize=auto;html=1;exitX=0.5;exitY=1;exitDx=0;exitDy=0;" parent="WIyWlLk6GJQsqaUBKTNV-1" source="VR8ZNbH8dyByt77pERlR-37" target="VR8ZNbH8dyByt77pERlR-43" edge="1">
          <mxGeometry relative="1" as="geometry" />
        </mxCell>
        <mxCell id="VR8ZNbH8dyByt77pERlR-37" value="Skor &amp;gt; 60" style="rounded=0;whiteSpace=wrap;html=1;" parent="WIyWlLk6GJQsqaUBKTNV-1" vertex="1">
          <mxGeometry x="890" y="940" width="120" height="60" as="geometry" />
        </mxCell>
        <mxCell id="VR8ZNbH8dyByt77pERlR-47" style="edgeStyle=orthogonalEdgeStyle;rounded=0;orthogonalLoop=1;jettySize=auto;html=1;" parent="WIyWlLk6GJQsqaUBKTNV-1" source="VR8ZNbH8dyByt77pERlR-38" target="VR8ZNbH8dyByt77pERlR-44" edge="1">
          <mxGeometry relative="1" as="geometry" />
        </mxCell>
        <mxCell id="VR8ZNbH8dyByt77pERlR-38" value="Skor = 100" style="rounded=0;whiteSpace=wrap;html=1;" parent="WIyWlLk6GJQsqaUBKTNV-1" vertex="1">
          <mxGeometry x="1060" y="940" width="120" height="60" as="geometry" />
        </mxCell>
        <mxCell id="VR8ZNbH8dyByt77pERlR-51" style="edgeStyle=orthogonalEdgeStyle;rounded=0;orthogonalLoop=1;jettySize=auto;html=1;entryX=0;entryY=0.5;entryDx=0;entryDy=0;" parent="WIyWlLk6GJQsqaUBKTNV-1" source="VR8ZNbH8dyByt77pERlR-42" target="VR8ZNbH8dyByt77pERlR-16" edge="1">
          <mxGeometry relative="1" as="geometry">
            <Array as="points">
              <mxPoint x="590" y="1080" />
              <mxPoint x="590" y="280" />
            </Array>
          </mxGeometry>
        </mxCell>
        <mxCell id="VR8ZNbH8dyByt77pERlR-42" value="Bintang 1" style="rounded=0;whiteSpace=wrap;html=1;" parent="WIyWlLk6GJQsqaUBKTNV-1" vertex="1">
          <mxGeometry x="720" y="1050" width="120" height="60" as="geometry" />
        </mxCell>
        <mxCell id="VR8ZNbH8dyByt77pERlR-49" style="edgeStyle=orthogonalEdgeStyle;rounded=0;orthogonalLoop=1;jettySize=auto;html=1;" parent="WIyWlLk6GJQsqaUBKTNV-1" source="VR8ZNbH8dyByt77pERlR-43" target="VR8ZNbH8dyByt77pERlR-48" edge="1">
          <mxGeometry relative="1" as="geometry" />
        </mxCell>
        <mxCell id="VR8ZNbH8dyByt77pERlR-43" value="Bintang 2" style="rounded=0;whiteSpace=wrap;html=1;" parent="WIyWlLk6GJQsqaUBKTNV-1" vertex="1">
          <mxGeometry x="890" y="1050" width="120" height="60" as="geometry" />
        </mxCell>
        <mxCell id="VR8ZNbH8dyByt77pERlR-50" style="edgeStyle=orthogonalEdgeStyle;rounded=0;orthogonalLoop=1;jettySize=auto;html=1;entryX=0.5;entryY=0;entryDx=0;entryDy=0;" parent="WIyWlLk6GJQsqaUBKTNV-1" source="VR8ZNbH8dyByt77pERlR-44" target="VR8ZNbH8dyByt77pERlR-48" edge="1">
          <mxGeometry relative="1" as="geometry">
            <Array as="points">
              <mxPoint x="1120" y="1170" />
              <mxPoint x="950" y="1170" />
            </Array>
          </mxGeometry>
        </mxCell>
        <mxCell id="VR8ZNbH8dyByt77pERlR-44" value="Bintang 3" style="rounded=0;whiteSpace=wrap;html=1;" parent="WIyWlLk6GJQsqaUBKTNV-1" vertex="1">
          <mxGeometry x="1060" y="1050" width="120" height="60" as="geometry" />
        </mxCell>
        <mxCell id="VR8ZNbH8dyByt77pERlR-85" style="edgeStyle=orthogonalEdgeStyle;rounded=0;orthogonalLoop=1;jettySize=auto;html=1;" parent="WIyWlLk6GJQsqaUBKTNV-1" source="VR8ZNbH8dyByt77pERlR-48" target="VR8ZNbH8dyByt77pERlR-54" edge="1">
          <mxGeometry relative="1" as="geometry" />
        </mxCell>
        <mxCell id="VR8ZNbH8dyByt77pERlR-48" value="Level 2" style="rounded=0;whiteSpace=wrap;html=1;" parent="WIyWlLk6GJQsqaUBKTNV-1" vertex="1">
          <mxGeometry x="890" y="1230" width="120" height="60" as="geometry" />
        </mxCell>
        <mxCell id="VR8ZNbH8dyByt77pERlR-52" style="edgeStyle=orthogonalEdgeStyle;rounded=0;orthogonalLoop=1;jettySize=auto;html=1;entryX=0.5;entryY=0;entryDx=0;entryDy=0;" parent="WIyWlLk6GJQsqaUBKTNV-1" source="VR8ZNbH8dyByt77pERlR-54" target="VR8ZNbH8dyByt77pERlR-57" edge="1">
          <mxGeometry relative="1" as="geometry" />
        </mxCell>
        <mxCell id="VR8ZNbH8dyByt77pERlR-53" style="edgeStyle=orthogonalEdgeStyle;rounded=0;orthogonalLoop=1;jettySize=auto;html=1;" parent="WIyWlLk6GJQsqaUBKTNV-1" source="VR8ZNbH8dyByt77pERlR-54" target="VR8ZNbH8dyByt77pERlR-68" edge="1">
          <mxGeometry relative="1" as="geometry" />
        </mxCell>
        <mxCell id="VR8ZNbH8dyByt77pERlR-54" value="Tebakan" style="rounded=0;whiteSpace=wrap;html=1;" parent="WIyWlLk6GJQsqaUBKTNV-1" vertex="1">
          <mxGeometry x="890" y="1320" width="120" height="60" as="geometry" />
        </mxCell>
        <mxCell id="VR8ZNbH8dyByt77pERlR-55" style="edgeStyle=orthogonalEdgeStyle;rounded=0;orthogonalLoop=1;jettySize=auto;html=1;entryX=0.5;entryY=0;entryDx=0;entryDy=0;" parent="WIyWlLk6GJQsqaUBKTNV-1" source="VR8ZNbH8dyByt77pERlR-57" target="VR8ZNbH8dyByt77pERlR-61" edge="1">
          <mxGeometry relative="1" as="geometry" />
        </mxCell>
        <mxCell id="VR8ZNbH8dyByt77pERlR-56" style="edgeStyle=orthogonalEdgeStyle;rounded=0;orthogonalLoop=1;jettySize=auto;html=1;entryX=0;entryY=0.5;entryDx=0;entryDy=0;" parent="WIyWlLk6GJQsqaUBKTNV-1" source="VR8ZNbH8dyByt77pERlR-57" target="VR8ZNbH8dyByt77pERlR-59" edge="1">
          <mxGeometry relative="1" as="geometry" />
        </mxCell>
        <mxCell id="VR8ZNbH8dyByt77pERlR-57" value="Apakah Tebakan&lt;br&gt;Benar?" style="rhombus;whiteSpace=wrap;html=1;" parent="WIyWlLk6GJQsqaUBKTNV-1" vertex="1">
          <mxGeometry x="1180" y="1410" width="140" height="140" as="geometry" />
        </mxCell>
        <mxCell id="VR8ZNbH8dyByt77pERlR-58" style="edgeStyle=orthogonalEdgeStyle;rounded=0;orthogonalLoop=1;jettySize=auto;html=1;exitX=0.5;exitY=1;exitDx=0;exitDy=0;entryX=1;entryY=0.5;entryDx=0;entryDy=0;" parent="WIyWlLk6GJQsqaUBKTNV-1" source="VR8ZNbH8dyByt77pERlR-59" target="VR8ZNbH8dyByt77pERlR-65" edge="1">
          <mxGeometry relative="1" as="geometry" />
        </mxCell>
        <mxCell id="VR8ZNbH8dyByt77pERlR-59" value="Point +0" style="rounded=0;whiteSpace=wrap;html=1;" parent="WIyWlLk6GJQsqaUBKTNV-1" vertex="1">
          <mxGeometry x="1490" y="1450" width="120" height="60" as="geometry" />
        </mxCell>
        <mxCell id="VR8ZNbH8dyByt77pERlR-60" style="edgeStyle=orthogonalEdgeStyle;rounded=0;orthogonalLoop=1;jettySize=auto;html=1;entryX=1;entryY=0.5;entryDx=0;entryDy=0;" parent="WIyWlLk6GJQsqaUBKTNV-1" source="VR8ZNbH8dyByt77pERlR-61" target="VR8ZNbH8dyByt77pERlR-65" edge="1">
          <mxGeometry relative="1" as="geometry">
            <mxPoint x="1250" y="1810" as="targetPoint" />
            <Array as="points">
              <mxPoint x="1250" y="1800" />
            </Array>
          </mxGeometry>
        </mxCell>
        <mxCell id="VR8ZNbH8dyByt77pERlR-61" value="Point + 20" style="rounded=0;whiteSpace=wrap;html=1;" parent="WIyWlLk6GJQsqaUBKTNV-1" vertex="1">
          <mxGeometry x="1190" y="1640" width="120" height="60" as="geometry" />
        </mxCell>
        <mxCell id="VR8ZNbH8dyByt77pERlR-62" style="edgeStyle=orthogonalEdgeStyle;rounded=0;orthogonalLoop=1;jettySize=auto;html=1;entryX=0.5;entryY=0;entryDx=0;entryDy=0;" parent="WIyWlLk6GJQsqaUBKTNV-1" source="VR8ZNbH8dyByt77pERlR-65" target="VR8ZNbH8dyByt77pERlR-76" edge="1">
          <mxGeometry relative="1" as="geometry" />
        </mxCell>
        <mxCell id="VR8ZNbH8dyByt77pERlR-63" style="edgeStyle=orthogonalEdgeStyle;rounded=0;orthogonalLoop=1;jettySize=auto;html=1;exitX=0.5;exitY=1;exitDx=0;exitDy=0;" parent="WIyWlLk6GJQsqaUBKTNV-1" source="VR8ZNbH8dyByt77pERlR-65" target="VR8ZNbH8dyByt77pERlR-74" edge="1">
          <mxGeometry relative="1" as="geometry" />
        </mxCell>
        <mxCell id="VR8ZNbH8dyByt77pERlR-64" style="edgeStyle=orthogonalEdgeStyle;rounded=0;orthogonalLoop=1;jettySize=auto;html=1;exitX=0.5;exitY=1;exitDx=0;exitDy=0;entryX=0.5;entryY=0;entryDx=0;entryDy=0;" parent="WIyWlLk6GJQsqaUBKTNV-1" source="VR8ZNbH8dyByt77pERlR-65" target="VR8ZNbH8dyByt77pERlR-78" edge="1">
          <mxGeometry relative="1" as="geometry" />
        </mxCell>
        <mxCell id="VR8ZNbH8dyByt77pERlR-65" value="Finish" style="rounded=0;whiteSpace=wrap;html=1;" parent="WIyWlLk6GJQsqaUBKTNV-1" vertex="1">
          <mxGeometry x="890" y="1770" width="120" height="60" as="geometry" />
        </mxCell>
        <mxCell id="VR8ZNbH8dyByt77pERlR-66" style="edgeStyle=orthogonalEdgeStyle;rounded=0;orthogonalLoop=1;jettySize=auto;html=1;exitX=0.5;exitY=1;exitDx=0;exitDy=0;entryX=0.5;entryY=0;entryDx=0;entryDy=0;" parent="WIyWlLk6GJQsqaUBKTNV-1" source="VR8ZNbH8dyByt77pERlR-68" target="VR8ZNbH8dyByt77pERlR-65" edge="1">
          <mxGeometry relative="1" as="geometry" />
        </mxCell>
        <mxCell id="VR8ZNbH8dyByt77pERlR-67" style="edgeStyle=orthogonalEdgeStyle;rounded=0;orthogonalLoop=1;jettySize=auto;html=1;entryX=0.5;entryY=0;entryDx=0;entryDy=0;" parent="WIyWlLk6GJQsqaUBKTNV-1" source="VR8ZNbH8dyByt77pERlR-68" edge="1" target="VR8ZNbH8dyByt77pERlR-147">
          <mxGeometry relative="1" as="geometry">
            <mxPoint x="420" y="3307.777777777778" as="targetPoint" />
          </mxGeometry>
        </mxCell>
        <mxCell id="VR8ZNbH8dyByt77pERlR-68" value="Waktu = 0" style="rhombus;whiteSpace=wrap;html=1;" parent="WIyWlLk6GJQsqaUBKTNV-1" vertex="1">
          <mxGeometry x="875" y="1440" width="150" height="150" as="geometry" />
        </mxCell>
        <mxCell id="VR8ZNbH8dyByt77pERlR-69" value="No" style="text;html=1;align=center;verticalAlign=middle;resizable=0;points=[];autosize=1;strokeColor=none;fillColor=none;" parent="WIyWlLk6GJQsqaUBKTNV-1" vertex="1">
          <mxGeometry x="1320" y="1448" width="40" height="30" as="geometry" />
        </mxCell>
        <mxCell id="VR8ZNbH8dyByt77pERlR-70" value="Yes" style="text;html=1;align=center;verticalAlign=middle;resizable=0;points=[];autosize=1;strokeColor=none;fillColor=none;" parent="WIyWlLk6GJQsqaUBKTNV-1" vertex="1">
          <mxGeometry x="1200" y="1528" width="40" height="30" as="geometry" />
        </mxCell>
        <mxCell id="VR8ZNbH8dyByt77pERlR-71" value="No" style="text;html=1;align=center;verticalAlign=middle;resizable=0;points=[];autosize=1;strokeColor=none;fillColor=none;" parent="WIyWlLk6GJQsqaUBKTNV-1" vertex="1">
          <mxGeometry x="960" y="1568" width="40" height="30" as="geometry" />
        </mxCell>
        <mxCell id="VR8ZNbH8dyByt77pERlR-72" value="Yes" style="text;html=1;align=center;verticalAlign=middle;resizable=0;points=[];autosize=1;strokeColor=none;fillColor=none;" parent="WIyWlLk6GJQsqaUBKTNV-1" vertex="1">
          <mxGeometry x="839.92" y="1480" width="40" height="30" as="geometry" />
        </mxCell>
        <mxCell id="VR8ZNbH8dyByt77pERlR-73" style="edgeStyle=orthogonalEdgeStyle;rounded=0;orthogonalLoop=1;jettySize=auto;html=1;exitX=0.5;exitY=1;exitDx=0;exitDy=0;" parent="WIyWlLk6GJQsqaUBKTNV-1" source="VR8ZNbH8dyByt77pERlR-74" target="VR8ZNbH8dyByt77pERlR-79" edge="1">
          <mxGeometry relative="1" as="geometry" />
        </mxCell>
        <mxCell id="VR8ZNbH8dyByt77pERlR-74" value="Skor &amp;lt; 60" style="rounded=0;whiteSpace=wrap;html=1;" parent="WIyWlLk6GJQsqaUBKTNV-1" vertex="1">
          <mxGeometry x="720" y="1910" width="120" height="60" as="geometry" />
        </mxCell>
        <mxCell id="VR8ZNbH8dyByt77pERlR-75" style="edgeStyle=orthogonalEdgeStyle;rounded=0;orthogonalLoop=1;jettySize=auto;html=1;exitX=0.5;exitY=1;exitDx=0;exitDy=0;" parent="WIyWlLk6GJQsqaUBKTNV-1" source="VR8ZNbH8dyByt77pERlR-76" target="VR8ZNbH8dyByt77pERlR-81" edge="1">
          <mxGeometry relative="1" as="geometry" />
        </mxCell>
        <mxCell id="VR8ZNbH8dyByt77pERlR-76" value="Skor &amp;gt; 60" style="rounded=0;whiteSpace=wrap;html=1;" parent="WIyWlLk6GJQsqaUBKTNV-1" vertex="1">
          <mxGeometry x="890" y="1910" width="120" height="60" as="geometry" />
        </mxCell>
        <mxCell id="VR8ZNbH8dyByt77pERlR-77" style="edgeStyle=orthogonalEdgeStyle;rounded=0;orthogonalLoop=1;jettySize=auto;html=1;" parent="WIyWlLk6GJQsqaUBKTNV-1" source="VR8ZNbH8dyByt77pERlR-78" target="VR8ZNbH8dyByt77pERlR-83" edge="1">
          <mxGeometry relative="1" as="geometry" />
        </mxCell>
        <mxCell id="VR8ZNbH8dyByt77pERlR-78" value="Skor = 100" style="rounded=0;whiteSpace=wrap;html=1;" parent="WIyWlLk6GJQsqaUBKTNV-1" vertex="1">
          <mxGeometry x="1060" y="1910" width="120" height="60" as="geometry" />
        </mxCell>
        <mxCell id="VR8ZNbH8dyByt77pERlR-86" style="edgeStyle=orthogonalEdgeStyle;rounded=0;orthogonalLoop=1;jettySize=auto;html=1;entryX=0;entryY=0.5;entryDx=0;entryDy=0;" parent="WIyWlLk6GJQsqaUBKTNV-1" source="VR8ZNbH8dyByt77pERlR-79" target="VR8ZNbH8dyByt77pERlR-48" edge="1">
          <mxGeometry relative="1" as="geometry">
            <Array as="points">
              <mxPoint x="600" y="2050" />
              <mxPoint x="600" y="1260" />
            </Array>
          </mxGeometry>
        </mxCell>
        <mxCell id="VR8ZNbH8dyByt77pERlR-79" value="Bintang 1" style="rounded=0;whiteSpace=wrap;html=1;" parent="WIyWlLk6GJQsqaUBKTNV-1" vertex="1">
          <mxGeometry x="720" y="2020" width="120" height="60" as="geometry" />
        </mxCell>
        <mxCell id="VR8ZNbH8dyByt77pERlR-80" style="edgeStyle=orthogonalEdgeStyle;rounded=0;orthogonalLoop=1;jettySize=auto;html=1;" parent="WIyWlLk6GJQsqaUBKTNV-1" source="VR8ZNbH8dyByt77pERlR-81" target="VR8ZNbH8dyByt77pERlR-84" edge="1">
          <mxGeometry relative="1" as="geometry" />
        </mxCell>
        <mxCell id="VR8ZNbH8dyByt77pERlR-81" value="Bintang 2" style="rounded=0;whiteSpace=wrap;html=1;" parent="WIyWlLk6GJQsqaUBKTNV-1" vertex="1">
          <mxGeometry x="890" y="2020" width="120" height="60" as="geometry" />
        </mxCell>
        <mxCell id="VR8ZNbH8dyByt77pERlR-82" style="edgeStyle=orthogonalEdgeStyle;rounded=0;orthogonalLoop=1;jettySize=auto;html=1;entryX=0.5;entryY=0;entryDx=0;entryDy=0;" parent="WIyWlLk6GJQsqaUBKTNV-1" source="VR8ZNbH8dyByt77pERlR-83" target="VR8ZNbH8dyByt77pERlR-84" edge="1">
          <mxGeometry relative="1" as="geometry">
            <Array as="points">
              <mxPoint x="1120" y="2140" />
              <mxPoint x="950" y="2140" />
            </Array>
          </mxGeometry>
        </mxCell>
        <mxCell id="VR8ZNbH8dyByt77pERlR-83" value="Bintang 3" style="rounded=0;whiteSpace=wrap;html=1;" parent="WIyWlLk6GJQsqaUBKTNV-1" vertex="1">
          <mxGeometry x="1060" y="2020" width="120" height="60" as="geometry" />
        </mxCell>
        <mxCell id="VR8ZNbH8dyByt77pERlR-121" style="edgeStyle=orthogonalEdgeStyle;rounded=0;orthogonalLoop=1;jettySize=auto;html=1;exitX=0.5;exitY=1;exitDx=0;exitDy=0;" parent="WIyWlLk6GJQsqaUBKTNV-1" source="VR8ZNbH8dyByt77pERlR-84" target="VR8ZNbH8dyByt77pERlR-91" edge="1">
          <mxGeometry relative="1" as="geometry" />
        </mxCell>
        <mxCell id="VR8ZNbH8dyByt77pERlR-143" style="edgeStyle=orthogonalEdgeStyle;rounded=0;orthogonalLoop=1;jettySize=auto;html=1;entryX=0;entryY=0.5;entryDx=0;entryDy=0;" parent="WIyWlLk6GJQsqaUBKTNV-1" source="VR8ZNbH8dyByt77pERlR-84" target="VR8ZNbH8dyByt77pERlR-137" edge="1">
          <mxGeometry relative="1" as="geometry" />
        </mxCell>
        <mxCell id="VR8ZNbH8dyByt77pERlR-84" value="Level 3" style="rounded=0;whiteSpace=wrap;html=1;" parent="WIyWlLk6GJQsqaUBKTNV-1" vertex="1">
          <mxGeometry x="889.9200000000001" y="2240" width="120" height="60" as="geometry" />
        </mxCell>
        <mxCell id="VR8ZNbH8dyByt77pERlR-89" style="edgeStyle=orthogonalEdgeStyle;rounded=0;orthogonalLoop=1;jettySize=auto;html=1;entryX=0.5;entryY=0;entryDx=0;entryDy=0;" parent="WIyWlLk6GJQsqaUBKTNV-1" source="VR8ZNbH8dyByt77pERlR-91" target="VR8ZNbH8dyByt77pERlR-94" edge="1">
          <mxGeometry relative="1" as="geometry" />
        </mxCell>
        <mxCell id="VR8ZNbH8dyByt77pERlR-90" style="edgeStyle=orthogonalEdgeStyle;rounded=0;orthogonalLoop=1;jettySize=auto;html=1;" parent="WIyWlLk6GJQsqaUBKTNV-1" source="VR8ZNbH8dyByt77pERlR-91" target="VR8ZNbH8dyByt77pERlR-104" edge="1">
          <mxGeometry relative="1" as="geometry" />
        </mxCell>
        <mxCell id="VR8ZNbH8dyByt77pERlR-91" value="Tebakan" style="rounded=0;whiteSpace=wrap;html=1;" parent="WIyWlLk6GJQsqaUBKTNV-1" vertex="1">
          <mxGeometry x="889.9200000000001" y="2420" width="120" height="60" as="geometry" />
        </mxCell>
        <mxCell id="VR8ZNbH8dyByt77pERlR-92" style="edgeStyle=orthogonalEdgeStyle;rounded=0;orthogonalLoop=1;jettySize=auto;html=1;entryX=0.5;entryY=0;entryDx=0;entryDy=0;" parent="WIyWlLk6GJQsqaUBKTNV-1" source="VR8ZNbH8dyByt77pERlR-94" target="VR8ZNbH8dyByt77pERlR-98" edge="1">
          <mxGeometry relative="1" as="geometry" />
        </mxCell>
        <mxCell id="VR8ZNbH8dyByt77pERlR-93" style="edgeStyle=orthogonalEdgeStyle;rounded=0;orthogonalLoop=1;jettySize=auto;html=1;entryX=0;entryY=0.5;entryDx=0;entryDy=0;" parent="WIyWlLk6GJQsqaUBKTNV-1" source="VR8ZNbH8dyByt77pERlR-94" target="VR8ZNbH8dyByt77pERlR-96" edge="1">
          <mxGeometry relative="1" as="geometry" />
        </mxCell>
        <mxCell id="VR8ZNbH8dyByt77pERlR-94" value="Apakah Tebakan&lt;br&gt;Benar?" style="rhombus;whiteSpace=wrap;html=1;" parent="WIyWlLk6GJQsqaUBKTNV-1" vertex="1">
          <mxGeometry x="1179.92" y="2510" width="140" height="140" as="geometry" />
        </mxCell>
        <mxCell id="VR8ZNbH8dyByt77pERlR-95" style="edgeStyle=orthogonalEdgeStyle;rounded=0;orthogonalLoop=1;jettySize=auto;html=1;exitX=0.5;exitY=1;exitDx=0;exitDy=0;entryX=1;entryY=0.5;entryDx=0;entryDy=0;" parent="WIyWlLk6GJQsqaUBKTNV-1" source="VR8ZNbH8dyByt77pERlR-96" target="VR8ZNbH8dyByt77pERlR-102" edge="1">
          <mxGeometry relative="1" as="geometry" />
        </mxCell>
        <mxCell id="VR8ZNbH8dyByt77pERlR-96" value="Point +0" style="rounded=0;whiteSpace=wrap;html=1;" parent="WIyWlLk6GJQsqaUBKTNV-1" vertex="1">
          <mxGeometry x="1489.92" y="2550" width="120" height="60" as="geometry" />
        </mxCell>
        <mxCell id="VR8ZNbH8dyByt77pERlR-97" style="edgeStyle=orthogonalEdgeStyle;rounded=0;orthogonalLoop=1;jettySize=auto;html=1;entryX=1;entryY=0.5;entryDx=0;entryDy=0;" parent="WIyWlLk6GJQsqaUBKTNV-1" source="VR8ZNbH8dyByt77pERlR-98" target="VR8ZNbH8dyByt77pERlR-102" edge="1">
          <mxGeometry relative="1" as="geometry">
            <mxPoint x="1249.92" y="2910" as="targetPoint" />
            <Array as="points">
              <mxPoint x="1249.92" y="2900" />
            </Array>
          </mxGeometry>
        </mxCell>
        <mxCell id="VR8ZNbH8dyByt77pERlR-98" value="Point + 20" style="rounded=0;whiteSpace=wrap;html=1;" parent="WIyWlLk6GJQsqaUBKTNV-1" vertex="1">
          <mxGeometry x="1189.92" y="2740" width="120" height="60" as="geometry" />
        </mxCell>
        <mxCell id="VR8ZNbH8dyByt77pERlR-99" style="edgeStyle=orthogonalEdgeStyle;rounded=0;orthogonalLoop=1;jettySize=auto;html=1;entryX=0.5;entryY=0;entryDx=0;entryDy=0;" parent="WIyWlLk6GJQsqaUBKTNV-1" source="VR8ZNbH8dyByt77pERlR-102" target="VR8ZNbH8dyByt77pERlR-112" edge="1">
          <mxGeometry relative="1" as="geometry" />
        </mxCell>
        <mxCell id="VR8ZNbH8dyByt77pERlR-100" style="edgeStyle=orthogonalEdgeStyle;rounded=0;orthogonalLoop=1;jettySize=auto;html=1;exitX=0.5;exitY=1;exitDx=0;exitDy=0;" parent="WIyWlLk6GJQsqaUBKTNV-1" source="VR8ZNbH8dyByt77pERlR-102" target="VR8ZNbH8dyByt77pERlR-110" edge="1">
          <mxGeometry relative="1" as="geometry" />
        </mxCell>
        <mxCell id="VR8ZNbH8dyByt77pERlR-101" style="edgeStyle=orthogonalEdgeStyle;rounded=0;orthogonalLoop=1;jettySize=auto;html=1;exitX=0.5;exitY=1;exitDx=0;exitDy=0;entryX=0.5;entryY=0;entryDx=0;entryDy=0;" parent="WIyWlLk6GJQsqaUBKTNV-1" source="VR8ZNbH8dyByt77pERlR-102" target="VR8ZNbH8dyByt77pERlR-114" edge="1">
          <mxGeometry relative="1" as="geometry" />
        </mxCell>
        <mxCell id="VR8ZNbH8dyByt77pERlR-102" value="Finish" style="rounded=0;whiteSpace=wrap;html=1;" parent="WIyWlLk6GJQsqaUBKTNV-1" vertex="1">
          <mxGeometry x="889.9200000000001" y="2870" width="120" height="60" as="geometry" />
        </mxCell>
        <mxCell id="VR8ZNbH8dyByt77pERlR-103" style="edgeStyle=orthogonalEdgeStyle;rounded=0;orthogonalLoop=1;jettySize=auto;html=1;exitX=0.5;exitY=1;exitDx=0;exitDy=0;entryX=0.5;entryY=0;entryDx=0;entryDy=0;" parent="WIyWlLk6GJQsqaUBKTNV-1" source="VR8ZNbH8dyByt77pERlR-104" target="VR8ZNbH8dyByt77pERlR-102" edge="1">
          <mxGeometry relative="1" as="geometry" />
        </mxCell>
        <mxCell id="VR8ZNbH8dyByt77pERlR-104" value="Waktu = 0" style="rhombus;whiteSpace=wrap;html=1;" parent="WIyWlLk6GJQsqaUBKTNV-1" vertex="1">
          <mxGeometry x="874.9200000000001" y="2540" width="150" height="150" as="geometry" />
        </mxCell>
        <mxCell id="VR8ZNbH8dyByt77pERlR-105" value="No" style="text;html=1;align=center;verticalAlign=middle;resizable=0;points=[];autosize=1;strokeColor=none;fillColor=none;" parent="WIyWlLk6GJQsqaUBKTNV-1" vertex="1">
          <mxGeometry x="1319.92" y="2548" width="40" height="30" as="geometry" />
        </mxCell>
        <mxCell id="VR8ZNbH8dyByt77pERlR-106" value="Yes" style="text;html=1;align=center;verticalAlign=middle;resizable=0;points=[];autosize=1;strokeColor=none;fillColor=none;" parent="WIyWlLk6GJQsqaUBKTNV-1" vertex="1">
          <mxGeometry x="1199.92" y="2628" width="40" height="30" as="geometry" />
        </mxCell>
        <mxCell id="VR8ZNbH8dyByt77pERlR-107" value="No" style="text;html=1;align=center;verticalAlign=middle;resizable=0;points=[];autosize=1;strokeColor=none;fillColor=none;" parent="WIyWlLk6GJQsqaUBKTNV-1" vertex="1">
          <mxGeometry x="960.0000000000001" y="2680" width="40" height="30" as="geometry" />
        </mxCell>
        <mxCell id="VR8ZNbH8dyByt77pERlR-108" value="Yes" style="text;html=1;align=center;verticalAlign=middle;resizable=0;points=[];autosize=1;strokeColor=none;fillColor=none;" parent="WIyWlLk6GJQsqaUBKTNV-1" vertex="1">
          <mxGeometry x="839.9200000000001" y="2568" width="40" height="30" as="geometry" />
        </mxCell>
        <mxCell id="VR8ZNbH8dyByt77pERlR-109" style="edgeStyle=orthogonalEdgeStyle;rounded=0;orthogonalLoop=1;jettySize=auto;html=1;exitX=0.5;exitY=1;exitDx=0;exitDy=0;" parent="WIyWlLk6GJQsqaUBKTNV-1" source="VR8ZNbH8dyByt77pERlR-110" target="VR8ZNbH8dyByt77pERlR-115" edge="1">
          <mxGeometry relative="1" as="geometry" />
        </mxCell>
        <mxCell id="VR8ZNbH8dyByt77pERlR-110" value="Skor &amp;lt; 60" style="rounded=0;whiteSpace=wrap;html=1;" parent="WIyWlLk6GJQsqaUBKTNV-1" vertex="1">
          <mxGeometry x="719.9200000000001" y="3010" width="120" height="60" as="geometry" />
        </mxCell>
        <mxCell id="VR8ZNbH8dyByt77pERlR-111" style="edgeStyle=orthogonalEdgeStyle;rounded=0;orthogonalLoop=1;jettySize=auto;html=1;exitX=0.5;exitY=1;exitDx=0;exitDy=0;" parent="WIyWlLk6GJQsqaUBKTNV-1" source="VR8ZNbH8dyByt77pERlR-112" target="VR8ZNbH8dyByt77pERlR-117" edge="1">
          <mxGeometry relative="1" as="geometry" />
        </mxCell>
        <mxCell id="VR8ZNbH8dyByt77pERlR-112" value="Skor &amp;gt; 60" style="rounded=0;whiteSpace=wrap;html=1;" parent="WIyWlLk6GJQsqaUBKTNV-1" vertex="1">
          <mxGeometry x="889.9200000000001" y="3010" width="120" height="60" as="geometry" />
        </mxCell>
        <mxCell id="VR8ZNbH8dyByt77pERlR-113" style="edgeStyle=orthogonalEdgeStyle;rounded=0;orthogonalLoop=1;jettySize=auto;html=1;" parent="WIyWlLk6GJQsqaUBKTNV-1" source="VR8ZNbH8dyByt77pERlR-114" target="VR8ZNbH8dyByt77pERlR-119" edge="1">
          <mxGeometry relative="1" as="geometry" />
        </mxCell>
        <mxCell id="VR8ZNbH8dyByt77pERlR-114" value="Skor = 100" style="rounded=0;whiteSpace=wrap;html=1;" parent="WIyWlLk6GJQsqaUBKTNV-1" vertex="1">
          <mxGeometry x="1059.92" y="3010" width="120" height="60" as="geometry" />
        </mxCell>
        <mxCell id="VR8ZNbH8dyByt77pERlR-145" style="edgeStyle=orthogonalEdgeStyle;rounded=0;orthogonalLoop=1;jettySize=auto;html=1;entryX=0;entryY=0.5;entryDx=0;entryDy=0;" parent="WIyWlLk6GJQsqaUBKTNV-1" source="VR8ZNbH8dyByt77pERlR-115" target="VR8ZNbH8dyByt77pERlR-84" edge="1">
          <mxGeometry relative="1" as="geometry">
            <Array as="points">
              <mxPoint x="579.9200000000001" y="3150" />
              <mxPoint x="579.9200000000001" y="2270" />
            </Array>
          </mxGeometry>
        </mxCell>
        <mxCell id="VR8ZNbH8dyByt77pERlR-115" value="Bintang 1" style="rounded=0;whiteSpace=wrap;html=1;" parent="WIyWlLk6GJQsqaUBKTNV-1" vertex="1">
          <mxGeometry x="719.9200000000001" y="3120" width="120" height="60" as="geometry" />
        </mxCell>
        <mxCell id="VR8ZNbH8dyByt77pERlR-116" style="edgeStyle=orthogonalEdgeStyle;rounded=0;orthogonalLoop=1;jettySize=auto;html=1;entryX=1;entryY=0.5;entryDx=0;entryDy=0;" parent="WIyWlLk6GJQsqaUBKTNV-1" source="VR8ZNbH8dyByt77pERlR-117" target="VR8ZNbH8dyByt77pERlR-148" edge="1">
          <mxGeometry relative="1" as="geometry">
            <mxPoint x="1010" y="3300" as="targetPoint" />
            <Array as="points">
              <mxPoint x="950" y="3390" />
            </Array>
          </mxGeometry>
        </mxCell>
        <mxCell id="VR8ZNbH8dyByt77pERlR-117" value="Bintang 2" style="rounded=0;whiteSpace=wrap;html=1;" parent="WIyWlLk6GJQsqaUBKTNV-1" vertex="1">
          <mxGeometry x="889.9200000000001" y="3120" width="120" height="60" as="geometry" />
        </mxCell>
        <mxCell id="VR8ZNbH8dyByt77pERlR-118" style="edgeStyle=orthogonalEdgeStyle;rounded=0;orthogonalLoop=1;jettySize=auto;html=1;" parent="WIyWlLk6GJQsqaUBKTNV-1" source="VR8ZNbH8dyByt77pERlR-119" target="VR8ZNbH8dyByt77pERlR-148" edge="1">
          <mxGeometry relative="1" as="geometry">
            <Array as="points">
              <mxPoint x="1120" y="3200" />
              <mxPoint x="950" y="3200" />
              <mxPoint x="950" y="3390" />
            </Array>
            <mxPoint x="1010" y="3300" as="targetPoint" />
          </mxGeometry>
        </mxCell>
        <mxCell id="VR8ZNbH8dyByt77pERlR-119" value="Bintang 3" style="rounded=0;whiteSpace=wrap;html=1;" parent="WIyWlLk6GJQsqaUBKTNV-1" vertex="1">
          <mxGeometry x="1059.92" y="3120" width="120" height="60" as="geometry" />
        </mxCell>
        <mxCell id="VR8ZNbH8dyByt77pERlR-135" style="edgeStyle=orthogonalEdgeStyle;rounded=0;orthogonalLoop=1;jettySize=auto;html=1;" parent="WIyWlLk6GJQsqaUBKTNV-1" source="VR8ZNbH8dyByt77pERlR-136" target="VR8ZNbH8dyByt77pERlR-138" edge="1">
          <mxGeometry relative="1" as="geometry" />
        </mxCell>
        <mxCell id="VR8ZNbH8dyByt77pERlR-136" value="Nyawa - 1" style="rounded=0;whiteSpace=wrap;html=1;" parent="WIyWlLk6GJQsqaUBKTNV-1" vertex="1">
          <mxGeometry x="1699.92" y="2240" width="120" height="60" as="geometry" />
        </mxCell>
        <mxCell id="VR8ZNbH8dyByt77pERlR-144" style="edgeStyle=orthogonalEdgeStyle;rounded=0;orthogonalLoop=1;jettySize=auto;html=1;" parent="WIyWlLk6GJQsqaUBKTNV-1" source="VR8ZNbH8dyByt77pERlR-137" target="VR8ZNbH8dyByt77pERlR-136" edge="1">
          <mxGeometry relative="1" as="geometry" />
        </mxCell>
        <mxCell id="VR8ZNbH8dyByt77pERlR-137" value="Jawaban Salah" style="rounded=0;whiteSpace=wrap;html=1;" parent="WIyWlLk6GJQsqaUBKTNV-1" vertex="1">
          <mxGeometry x="1399.92" y="2240" width="120" height="60" as="geometry" />
        </mxCell>
        <mxCell id="VR8ZNbH8dyByt77pERlR-141" style="edgeStyle=orthogonalEdgeStyle;rounded=0;orthogonalLoop=1;jettySize=auto;html=1;entryX=1;entryY=0.5;entryDx=0;entryDy=0;" parent="WIyWlLk6GJQsqaUBKTNV-1" source="VR8ZNbH8dyByt77pERlR-138" target="VR8ZNbH8dyByt77pERlR-147" edge="1">
          <mxGeometry relative="1" as="geometry">
            <mxPoint x="1940" y="3282.222222222222" as="targetPoint" />
            <Array as="points">
              <mxPoint x="1920" y="2473" />
              <mxPoint x="1920" y="3240" />
            </Array>
          </mxGeometry>
        </mxCell>
        <mxCell id="VR8ZNbH8dyByt77pERlR-142" style="edgeStyle=orthogonalEdgeStyle;rounded=0;orthogonalLoop=1;jettySize=auto;html=1;entryX=1;entryY=0.5;entryDx=0;entryDy=0;" parent="WIyWlLk6GJQsqaUBKTNV-1" source="VR8ZNbH8dyByt77pERlR-138" target="VR8ZNbH8dyByt77pERlR-102" edge="1">
          <mxGeometry relative="1" as="geometry">
            <Array as="points">
              <mxPoint x="1759.92" y="2900" />
            </Array>
          </mxGeometry>
        </mxCell>
        <mxCell id="VR8ZNbH8dyByt77pERlR-138" value="Nyawa = 0" style="rhombus;whiteSpace=wrap;html=1;" parent="WIyWlLk6GJQsqaUBKTNV-1" vertex="1">
          <mxGeometry x="1684.92" y="2418" width="150" height="150" as="geometry" />
        </mxCell>
        <mxCell id="VR8ZNbH8dyByt77pERlR-139" value="No" style="text;html=1;align=center;verticalAlign=middle;resizable=0;points=[];autosize=1;strokeColor=none;fillColor=none;" parent="WIyWlLk6GJQsqaUBKTNV-1" vertex="1">
          <mxGeometry x="1769.92" y="2568" width="40" height="30" as="geometry" />
        </mxCell>
        <mxCell id="VR8ZNbH8dyByt77pERlR-140" value="Yes" style="text;html=1;align=center;verticalAlign=middle;resizable=0;points=[];autosize=1;strokeColor=none;fillColor=none;" parent="WIyWlLk6GJQsqaUBKTNV-1" vertex="1">
          <mxGeometry x="1880" y="2428" width="40" height="30" as="geometry" />
        </mxCell>
        <mxCell id="VR8ZNbH8dyByt77pERlR-149" style="edgeStyle=orthogonalEdgeStyle;rounded=0;orthogonalLoop=1;jettySize=auto;html=1;" parent="WIyWlLk6GJQsqaUBKTNV-1" source="VR8ZNbH8dyByt77pERlR-147" target="VR8ZNbH8dyByt77pERlR-148" edge="1">
          <mxGeometry relative="1" as="geometry">
            <Array as="points">
              <mxPoint x="420" y="3310" />
              <mxPoint x="420" y="3310" />
            </Array>
          </mxGeometry>
        </mxCell>
        <mxCell id="VR8ZNbH8dyByt77pERlR-147" value="Game Over" style="rounded=0;whiteSpace=wrap;html=1;" parent="WIyWlLk6GJQsqaUBKTNV-1" vertex="1">
          <mxGeometry x="360" y="3210" width="120" height="60" as="geometry" />
        </mxCell>
        <mxCell id="VR8ZNbH8dyByt77pERlR-148" value="Selesai" style="ellipse;whiteSpace=wrap;html=1;fillColor=#1ba1e2;fontColor=#ffffff;strokeColor=#006EAF;" parent="WIyWlLk6GJQsqaUBKTNV-1" vertex="1">
          <mxGeometry x="360" y="3350" width="120" height="80" as="geometry" />
        </mxCell>
        <mxCell id="QP5sZflzTYetgTL0sqqq-0" style="edgeStyle=orthogonalEdgeStyle;rounded=0;orthogonalLoop=1;jettySize=auto;html=1;" edge="1" parent="WIyWlLk6GJQsqaUBKTNV-1" source="QP5sZflzTYetgTL0sqqq-1" target="QP5sZflzTYetgTL0sqqq-5">
          <mxGeometry relative="1" as="geometry" />
        </mxCell>
        <mxCell id="QP5sZflzTYetgTL0sqqq-33" style="edgeStyle=orthogonalEdgeStyle;rounded=0;orthogonalLoop=1;jettySize=auto;html=1;entryX=0;entryY=0.5;entryDx=0;entryDy=0;" edge="1" parent="WIyWlLk6GJQsqaUBKTNV-1" source="QP5sZflzTYetgTL0sqqq-1" target="VR8ZNbH8dyByt77pERlR-148">
          <mxGeometry relative="1" as="geometry">
            <Array as="points">
              <mxPoint x="-40" y="-110" />
              <mxPoint x="-40" y="3390" />
            </Array>
          </mxGeometry>
        </mxCell>
        <mxCell id="QP5sZflzTYetgTL0sqqq-48" style="edgeStyle=orthogonalEdgeStyle;rounded=0;orthogonalLoop=1;jettySize=auto;html=1;exitX=0.25;exitY=0;exitDx=0;exitDy=0;entryX=0.75;entryY=0;entryDx=0;entryDy=0;" edge="1" parent="WIyWlLk6GJQsqaUBKTNV-1" source="QP5sZflzTYetgTL0sqqq-1" target="QP5sZflzTYetgTL0sqqq-41">
          <mxGeometry relative="1" as="geometry">
            <Array as="points">
              <mxPoint x="200" y="-200" />
              <mxPoint x="2350" y="-200" />
            </Array>
          </mxGeometry>
        </mxCell>
        <mxCell id="QP5sZflzTYetgTL0sqqq-53" style="edgeStyle=orthogonalEdgeStyle;rounded=0;orthogonalLoop=1;jettySize=auto;html=1;exitX=0.75;exitY=0;exitDx=0;exitDy=0;entryX=0.75;entryY=0;entryDx=0;entryDy=0;fillColor=#e51400;strokeColor=#808080;" edge="1" parent="WIyWlLk6GJQsqaUBKTNV-1" source="QP5sZflzTYetgTL0sqqq-1" target="QP5sZflzTYetgTL0sqqq-40">
          <mxGeometry relative="1" as="geometry">
            <Array as="points">
              <mxPoint x="260" y="-160" />
              <mxPoint x="1365" y="-160" />
              <mxPoint x="1365" y="-170" />
              <mxPoint x="2530" y="-170" />
            </Array>
          </mxGeometry>
        </mxCell>
        <mxCell id="QP5sZflzTYetgTL0sqqq-1" value="Materi" style="rounded=0;whiteSpace=wrap;html=1;fillColor=#e3c800;fontColor=#000000;strokeColor=#B09500;" vertex="1" parent="WIyWlLk6GJQsqaUBKTNV-1">
          <mxGeometry x="170" y="-140" width="120" height="60" as="geometry" />
        </mxCell>
        <mxCell id="QP5sZflzTYetgTL0sqqq-2" style="edgeStyle=orthogonalEdgeStyle;rounded=0;orthogonalLoop=1;jettySize=auto;html=1;" edge="1" parent="WIyWlLk6GJQsqaUBKTNV-1" source="QP5sZflzTYetgTL0sqqq-5" target="QP5sZflzTYetgTL0sqqq-9">
          <mxGeometry relative="1" as="geometry" />
        </mxCell>
        <mxCell id="QP5sZflzTYetgTL0sqqq-3" style="edgeStyle=orthogonalEdgeStyle;rounded=0;orthogonalLoop=1;jettySize=auto;html=1;entryX=0.5;entryY=0;entryDx=0;entryDy=0;" edge="1" parent="WIyWlLk6GJQsqaUBKTNV-1" source="QP5sZflzTYetgTL0sqqq-5" target="QP5sZflzTYetgTL0sqqq-7">
          <mxGeometry relative="1" as="geometry">
            <Array as="points">
              <mxPoint x="230" y="50" />
              <mxPoint x="80" y="50" />
            </Array>
          </mxGeometry>
        </mxCell>
        <mxCell id="QP5sZflzTYetgTL0sqqq-4" style="edgeStyle=orthogonalEdgeStyle;rounded=0;orthogonalLoop=1;jettySize=auto;html=1;entryX=0.5;entryY=0;entryDx=0;entryDy=0;" edge="1" parent="WIyWlLk6GJQsqaUBKTNV-1" source="QP5sZflzTYetgTL0sqqq-5" target="QP5sZflzTYetgTL0sqqq-11">
          <mxGeometry relative="1" as="geometry">
            <Array as="points">
              <mxPoint x="230" y="50" />
              <mxPoint x="380" y="50" />
            </Array>
          </mxGeometry>
        </mxCell>
        <mxCell id="QP5sZflzTYetgTL0sqqq-5" value="Sub Materi" style="rounded=0;whiteSpace=wrap;html=1;" vertex="1" parent="WIyWlLk6GJQsqaUBKTNV-1">
          <mxGeometry x="170" y="-30" width="120" height="60" as="geometry" />
        </mxCell>
        <mxCell id="QP5sZflzTYetgTL0sqqq-6" style="edgeStyle=orthogonalEdgeStyle;rounded=0;orthogonalLoop=1;jettySize=auto;html=1;entryX=0;entryY=0.5;entryDx=0;entryDy=0;" edge="1" parent="WIyWlLk6GJQsqaUBKTNV-1" source="QP5sZflzTYetgTL0sqqq-7" target="QP5sZflzTYetgTL0sqqq-13">
          <mxGeometry relative="1" as="geometry">
            <Array as="points">
              <mxPoint x="90" y="265" />
            </Array>
          </mxGeometry>
        </mxCell>
        <mxCell id="QP5sZflzTYetgTL0sqqq-7" value="Materi 1" style="rounded=0;whiteSpace=wrap;html=1;" vertex="1" parent="WIyWlLk6GJQsqaUBKTNV-1">
          <mxGeometry x="20" y="90" width="120" height="60" as="geometry" />
        </mxCell>
        <mxCell id="QP5sZflzTYetgTL0sqqq-8" style="edgeStyle=orthogonalEdgeStyle;rounded=0;orthogonalLoop=1;jettySize=auto;html=1;entryX=0.5;entryY=0;entryDx=0;entryDy=0;" edge="1" parent="WIyWlLk6GJQsqaUBKTNV-1" source="QP5sZflzTYetgTL0sqqq-9" target="QP5sZflzTYetgTL0sqqq-13">
          <mxGeometry relative="1" as="geometry" />
        </mxCell>
        <mxCell id="QP5sZflzTYetgTL0sqqq-9" value="Materi 2" style="rounded=0;whiteSpace=wrap;html=1;" vertex="1" parent="WIyWlLk6GJQsqaUBKTNV-1">
          <mxGeometry x="170" y="90" width="120" height="60" as="geometry" />
        </mxCell>
        <mxCell id="QP5sZflzTYetgTL0sqqq-10" style="edgeStyle=orthogonalEdgeStyle;rounded=0;orthogonalLoop=1;jettySize=auto;html=1;entryX=1;entryY=0.5;entryDx=0;entryDy=0;" edge="1" parent="WIyWlLk6GJQsqaUBKTNV-1" source="QP5sZflzTYetgTL0sqqq-11" target="QP5sZflzTYetgTL0sqqq-13">
          <mxGeometry relative="1" as="geometry">
            <Array as="points">
              <mxPoint x="380" y="265" />
            </Array>
          </mxGeometry>
        </mxCell>
        <mxCell id="QP5sZflzTYetgTL0sqqq-11" value="Materi 3" style="rounded=0;whiteSpace=wrap;html=1;" vertex="1" parent="WIyWlLk6GJQsqaUBKTNV-1">
          <mxGeometry x="320" y="90" width="120" height="60" as="geometry" />
        </mxCell>
        <mxCell id="QP5sZflzTYetgTL0sqqq-12" style="edgeStyle=orthogonalEdgeStyle;rounded=0;orthogonalLoop=1;jettySize=auto;html=1;entryX=1;entryY=0.5;entryDx=0;entryDy=0;" edge="1" parent="WIyWlLk6GJQsqaUBKTNV-1" source="QP5sZflzTYetgTL0sqqq-13" target="QP5sZflzTYetgTL0sqqq-5">
          <mxGeometry relative="1" as="geometry">
            <Array as="points">
              <mxPoint x="230" y="430" />
              <mxPoint x="470" y="430" />
              <mxPoint x="470" />
            </Array>
          </mxGeometry>
        </mxCell>
        <mxCell id="QP5sZflzTYetgTL0sqqq-13" value="Tampilan Materi" style="rhombus;whiteSpace=wrap;html=1;" vertex="1" parent="WIyWlLk6GJQsqaUBKTNV-1">
          <mxGeometry x="155" y="190" width="150" height="150" as="geometry" />
        </mxCell>
        <mxCell id="QP5sZflzTYetgTL0sqqq-14" style="edgeStyle=orthogonalEdgeStyle;rounded=0;orthogonalLoop=1;jettySize=auto;html=1;" edge="1" parent="WIyWlLk6GJQsqaUBKTNV-1" source="QP5sZflzTYetgTL0sqqq-15" target="QP5sZflzTYetgTL0sqqq-17">
          <mxGeometry relative="1" as="geometry" />
        </mxCell>
        <mxCell id="QP5sZflzTYetgTL0sqqq-15" value="Mulai" style="ellipse;whiteSpace=wrap;html=1;fillColor=#e3c800;fontColor=#000000;strokeColor=#B09500;" vertex="1" parent="WIyWlLk6GJQsqaUBKTNV-1">
          <mxGeometry x="413" y="-530" width="120" height="80" as="geometry" />
        </mxCell>
        <mxCell id="QP5sZflzTYetgTL0sqqq-16" style="edgeStyle=orthogonalEdgeStyle;rounded=0;orthogonalLoop=1;jettySize=auto;html=1;entryX=0.5;entryY=0;entryDx=0;entryDy=0;" edge="1" parent="WIyWlLk6GJQsqaUBKTNV-1" source="QP5sZflzTYetgTL0sqqq-17" target="QP5sZflzTYetgTL0sqqq-18">
          <mxGeometry relative="1" as="geometry" />
        </mxCell>
        <mxCell id="QP5sZflzTYetgTL0sqqq-17" value="Halaman Login" style="rounded=0;whiteSpace=wrap;html=1;" vertex="1" parent="WIyWlLk6GJQsqaUBKTNV-1">
          <mxGeometry x="413" y="-390" width="120" height="60" as="geometry" />
        </mxCell>
        <mxCell id="QP5sZflzTYetgTL0sqqq-26" style="edgeStyle=orthogonalEdgeStyle;rounded=0;orthogonalLoop=1;jettySize=auto;html=1;entryX=0.5;entryY=0;entryDx=0;entryDy=0;" edge="1" parent="WIyWlLk6GJQsqaUBKTNV-1" source="QP5sZflzTYetgTL0sqqq-18" target="QP5sZflzTYetgTL0sqqq-1">
          <mxGeometry relative="1" as="geometry">
            <Array as="points">
              <mxPoint x="473" y="-160" />
              <mxPoint x="230" y="-160" />
            </Array>
          </mxGeometry>
        </mxCell>
        <mxCell id="QP5sZflzTYetgTL0sqqq-27" style="edgeStyle=orthogonalEdgeStyle;rounded=0;orthogonalLoop=1;jettySize=auto;html=1;entryX=0.5;entryY=0;entryDx=0;entryDy=0;" edge="1" parent="WIyWlLk6GJQsqaUBKTNV-1" source="QP5sZflzTYetgTL0sqqq-18" target="QP5sZflzTYetgTL0sqqq-24">
          <mxGeometry relative="1" as="geometry">
            <Array as="points">
              <mxPoint x="473" y="-160" />
              <mxPoint x="950" y="-160" />
            </Array>
          </mxGeometry>
        </mxCell>
        <mxCell id="QP5sZflzTYetgTL0sqqq-31" style="edgeStyle=orthogonalEdgeStyle;rounded=0;orthogonalLoop=1;jettySize=auto;html=1;" edge="1" parent="WIyWlLk6GJQsqaUBKTNV-1" source="QP5sZflzTYetgTL0sqqq-18" target="QP5sZflzTYetgTL0sqqq-29">
          <mxGeometry relative="1" as="geometry">
            <Array as="points">
              <mxPoint x="473" y="-160" />
              <mxPoint x="-220" y="-160" />
            </Array>
          </mxGeometry>
        </mxCell>
        <mxCell id="QP5sZflzTYetgTL0sqqq-37" style="edgeStyle=orthogonalEdgeStyle;rounded=0;orthogonalLoop=1;jettySize=auto;html=1;entryX=0.5;entryY=0;entryDx=0;entryDy=0;" edge="1" parent="WIyWlLk6GJQsqaUBKTNV-1" source="QP5sZflzTYetgTL0sqqq-18" target="QP5sZflzTYetgTL0sqqq-35">
          <mxGeometry relative="1" as="geometry">
            <Array as="points">
              <mxPoint x="473" y="-160" />
            </Array>
          </mxGeometry>
        </mxCell>
        <mxCell id="QP5sZflzTYetgTL0sqqq-62" style="edgeStyle=orthogonalEdgeStyle;rounded=0;orthogonalLoop=1;jettySize=auto;html=1;entryX=0.5;entryY=0;entryDx=0;entryDy=0;" edge="1" parent="WIyWlLk6GJQsqaUBKTNV-1" source="QP5sZflzTYetgTL0sqqq-18" target="QP5sZflzTYetgTL0sqqq-41">
          <mxGeometry relative="1" as="geometry">
            <Array as="points">
              <mxPoint x="474" y="-160" />
              <mxPoint x="2320" y="-160" />
            </Array>
          </mxGeometry>
        </mxCell>
        <mxCell id="QP5sZflzTYetgTL0sqqq-63" style="edgeStyle=orthogonalEdgeStyle;rounded=0;orthogonalLoop=1;jettySize=auto;html=1;entryX=0.5;entryY=0;entryDx=0;entryDy=0;" edge="1" parent="WIyWlLk6GJQsqaUBKTNV-1" source="QP5sZflzTYetgTL0sqqq-18" target="QP5sZflzTYetgTL0sqqq-40">
          <mxGeometry relative="1" as="geometry">
            <Array as="points">
              <mxPoint x="474" y="-160" />
              <mxPoint x="2500" y="-160" />
            </Array>
          </mxGeometry>
        </mxCell>
        <mxCell id="QP5sZflzTYetgTL0sqqq-18" value="Hlaman &lt;br&gt;Menu Utama" style="rounded=0;whiteSpace=wrap;html=1;fillColor=#647687;fontColor=#ffffff;strokeColor=#314354;" vertex="1" parent="WIyWlLk6GJQsqaUBKTNV-1">
          <mxGeometry x="414" y="-272" width="120" height="60" as="geometry" />
        </mxCell>
        <mxCell id="QP5sZflzTYetgTL0sqqq-19" style="edgeStyle=orthogonalEdgeStyle;rounded=0;orthogonalLoop=1;jettySize=auto;html=1;entryX=0;entryY=0.5;entryDx=0;entryDy=0;" edge="1" parent="WIyWlLk6GJQsqaUBKTNV-1" source="QP5sZflzTYetgTL0sqqq-21" target="QP5sZflzTYetgTL0sqqq-17">
          <mxGeometry relative="1" as="geometry">
            <Array as="points">
              <mxPoint x="333" y="-360" />
            </Array>
          </mxGeometry>
        </mxCell>
        <mxCell id="QP5sZflzTYetgTL0sqqq-20" style="edgeStyle=orthogonalEdgeStyle;rounded=0;orthogonalLoop=1;jettySize=auto;html=1;entryX=0;entryY=0.5;entryDx=0;entryDy=0;" edge="1" parent="WIyWlLk6GJQsqaUBKTNV-1" source="QP5sZflzTYetgTL0sqqq-21" target="QP5sZflzTYetgTL0sqqq-18">
          <mxGeometry relative="1" as="geometry">
            <Array as="points">
              <mxPoint x="333" y="-240" />
              <mxPoint x="414" y="-240" />
            </Array>
          </mxGeometry>
        </mxCell>
        <mxCell id="QP5sZflzTYetgTL0sqqq-21" value="Kolom Kosong" style="rhombus;whiteSpace=wrap;html=1;" vertex="1" parent="WIyWlLk6GJQsqaUBKTNV-1">
          <mxGeometry x="290" y="-340" width="80" height="80" as="geometry" />
        </mxCell>
        <mxCell id="QP5sZflzTYetgTL0sqqq-22" value="Yes" style="text;html=1;align=center;verticalAlign=middle;resizable=0;points=[];autosize=1;strokeColor=none;fillColor=none;" vertex="1" parent="WIyWlLk6GJQsqaUBKTNV-1">
          <mxGeometry x="333" y="-362" width="40" height="30" as="geometry" />
        </mxCell>
        <mxCell id="QP5sZflzTYetgTL0sqqq-23" value="No" style="text;html=1;align=center;verticalAlign=middle;resizable=0;points=[];autosize=1;strokeColor=none;fillColor=none;" vertex="1" parent="WIyWlLk6GJQsqaUBKTNV-1">
          <mxGeometry x="333" y="-242" width="40" height="30" as="geometry" />
        </mxCell>
        <mxCell id="QP5sZflzTYetgTL0sqqq-25" style="edgeStyle=orthogonalEdgeStyle;rounded=0;orthogonalLoop=1;jettySize=auto;html=1;" edge="1" parent="WIyWlLk6GJQsqaUBKTNV-1" source="QP5sZflzTYetgTL0sqqq-24" target="VR8ZNbH8dyByt77pERlR-1">
          <mxGeometry relative="1" as="geometry" />
        </mxCell>
        <mxCell id="QP5sZflzTYetgTL0sqqq-51" style="edgeStyle=orthogonalEdgeStyle;rounded=0;orthogonalLoop=1;jettySize=auto;html=1;exitX=0.75;exitY=0;exitDx=0;exitDy=0;" edge="1" parent="WIyWlLk6GJQsqaUBKTNV-1" source="QP5sZflzTYetgTL0sqqq-24">
          <mxGeometry relative="1" as="geometry">
            <mxPoint x="2350" y="-130" as="targetPoint" />
            <Array as="points">
              <mxPoint x="980" y="-200" />
              <mxPoint x="2350" y="-200" />
            </Array>
          </mxGeometry>
        </mxCell>
        <mxCell id="QP5sZflzTYetgTL0sqqq-56" style="edgeStyle=orthogonalEdgeStyle;rounded=0;orthogonalLoop=1;jettySize=auto;html=1;exitX=0.75;exitY=0;exitDx=0;exitDy=0;entryX=0.75;entryY=0;entryDx=0;entryDy=0;fillColor=#e51400;strokeColor=#808080;" edge="1" parent="WIyWlLk6GJQsqaUBKTNV-1" source="QP5sZflzTYetgTL0sqqq-24" target="QP5sZflzTYetgTL0sqqq-40">
          <mxGeometry relative="1" as="geometry" />
        </mxCell>
        <mxCell id="QP5sZflzTYetgTL0sqqq-24" value="Main" style="rounded=0;whiteSpace=wrap;html=1;fillColor=#e3c800;fontColor=#000000;strokeColor=#B09500;" vertex="1" parent="WIyWlLk6GJQsqaUBKTNV-1">
          <mxGeometry x="890" y="-140" width="120" height="60" as="geometry" />
        </mxCell>
        <mxCell id="QP5sZflzTYetgTL0sqqq-28" style="edgeStyle=orthogonalEdgeStyle;rounded=0;orthogonalLoop=1;jettySize=auto;html=1;" edge="1" parent="WIyWlLk6GJQsqaUBKTNV-1" source="QP5sZflzTYetgTL0sqqq-29" target="QP5sZflzTYetgTL0sqqq-30">
          <mxGeometry relative="1" as="geometry" />
        </mxCell>
        <mxCell id="QP5sZflzTYetgTL0sqqq-45" style="edgeStyle=orthogonalEdgeStyle;rounded=0;orthogonalLoop=1;jettySize=auto;html=1;exitX=0.25;exitY=0;exitDx=0;exitDy=0;entryX=0.75;entryY=0;entryDx=0;entryDy=0;" edge="1" parent="WIyWlLk6GJQsqaUBKTNV-1" source="QP5sZflzTYetgTL0sqqq-29" target="QP5sZflzTYetgTL0sqqq-41">
          <mxGeometry relative="1" as="geometry">
            <Array as="points">
              <mxPoint x="-250" y="-200" />
              <mxPoint x="2350" y="-200" />
            </Array>
          </mxGeometry>
        </mxCell>
        <mxCell id="QP5sZflzTYetgTL0sqqq-52" style="edgeStyle=orthogonalEdgeStyle;rounded=0;orthogonalLoop=1;jettySize=auto;html=1;exitX=0.75;exitY=0;exitDx=0;exitDy=0;entryX=0.75;entryY=0;entryDx=0;entryDy=0;fillColor=#e51400;strokeColor=#808080;" edge="1" parent="WIyWlLk6GJQsqaUBKTNV-1" source="QP5sZflzTYetgTL0sqqq-29" target="QP5sZflzTYetgTL0sqqq-40">
          <mxGeometry relative="1" as="geometry">
            <Array as="points">
              <mxPoint x="-190" y="-170" />
              <mxPoint x="2530" y="-170" />
            </Array>
          </mxGeometry>
        </mxCell>
        <mxCell id="QP5sZflzTYetgTL0sqqq-29" value="Petunjuk" style="rounded=0;whiteSpace=wrap;html=1;fillColor=#e3c800;fontColor=#000000;strokeColor=#B09500;" vertex="1" parent="WIyWlLk6GJQsqaUBKTNV-1">
          <mxGeometry x="-280" y="-140" width="120" height="60" as="geometry" />
        </mxCell>
        <mxCell id="QP5sZflzTYetgTL0sqqq-32" style="edgeStyle=orthogonalEdgeStyle;rounded=0;orthogonalLoop=1;jettySize=auto;html=1;entryX=0;entryY=0.5;entryDx=0;entryDy=0;" edge="1" parent="WIyWlLk6GJQsqaUBKTNV-1" source="QP5sZflzTYetgTL0sqqq-30" target="VR8ZNbH8dyByt77pERlR-148">
          <mxGeometry relative="1" as="geometry">
            <Array as="points">
              <mxPoint x="-220" y="3390" />
            </Array>
          </mxGeometry>
        </mxCell>
        <mxCell id="QP5sZflzTYetgTL0sqqq-30" value="Petunjuk" style="rounded=0;whiteSpace=wrap;html=1;" vertex="1" parent="WIyWlLk6GJQsqaUBKTNV-1">
          <mxGeometry x="-280" y="210" width="120" height="60" as="geometry" />
        </mxCell>
        <mxCell id="QP5sZflzTYetgTL0sqqq-34" style="edgeStyle=orthogonalEdgeStyle;rounded=0;orthogonalLoop=1;jettySize=auto;html=1;exitX=0.5;exitY=1;exitDx=0;exitDy=0;entryX=0.5;entryY=0;entryDx=0;entryDy=0;" edge="1" parent="WIyWlLk6GJQsqaUBKTNV-1" source="QP5sZflzTYetgTL0sqqq-35" target="QP5sZflzTYetgTL0sqqq-36">
          <mxGeometry relative="1" as="geometry" />
        </mxCell>
        <mxCell id="QP5sZflzTYetgTL0sqqq-54" style="edgeStyle=orthogonalEdgeStyle;rounded=0;orthogonalLoop=1;jettySize=auto;html=1;exitX=0.25;exitY=0;exitDx=0;exitDy=0;entryX=0.75;entryY=0;entryDx=0;entryDy=0;" edge="1" parent="WIyWlLk6GJQsqaUBKTNV-1" source="QP5sZflzTYetgTL0sqqq-35" target="QP5sZflzTYetgTL0sqqq-41">
          <mxGeometry relative="1" as="geometry">
            <Array as="points">
              <mxPoint x="2090" y="-200" />
              <mxPoint x="2350" y="-200" />
            </Array>
          </mxGeometry>
        </mxCell>
        <mxCell id="QP5sZflzTYetgTL0sqqq-55" style="edgeStyle=orthogonalEdgeStyle;rounded=0;orthogonalLoop=1;jettySize=auto;html=1;exitX=0.75;exitY=0;exitDx=0;exitDy=0;entryX=0.75;entryY=0;entryDx=0;entryDy=0;fillColor=#e51400;strokeColor=#808080;" edge="1" parent="WIyWlLk6GJQsqaUBKTNV-1" source="QP5sZflzTYetgTL0sqqq-35" target="QP5sZflzTYetgTL0sqqq-40">
          <mxGeometry relative="1" as="geometry">
            <Array as="points">
              <mxPoint x="2150" y="-170" />
              <mxPoint x="2530" y="-170" />
            </Array>
          </mxGeometry>
        </mxCell>
        <mxCell id="QP5sZflzTYetgTL0sqqq-35" value="Profile" style="rounded=0;whiteSpace=wrap;html=1;fillColor=#e3c800;fontColor=#000000;strokeColor=#B09500;" vertex="1" parent="WIyWlLk6GJQsqaUBKTNV-1">
          <mxGeometry x="2060" y="-130" width="120" height="60" as="geometry" />
        </mxCell>
        <mxCell id="QP5sZflzTYetgTL0sqqq-39" style="edgeStyle=orthogonalEdgeStyle;rounded=0;orthogonalLoop=1;jettySize=auto;html=1;entryX=1;entryY=0.5;entryDx=0;entryDy=0;" edge="1" parent="WIyWlLk6GJQsqaUBKTNV-1" source="QP5sZflzTYetgTL0sqqq-36" target="VR8ZNbH8dyByt77pERlR-148">
          <mxGeometry relative="1" as="geometry">
            <Array as="points">
              <mxPoint x="2130" y="230" />
              <mxPoint x="2130" y="3390" />
            </Array>
          </mxGeometry>
        </mxCell>
        <mxCell id="QP5sZflzTYetgTL0sqqq-36" value="Tampilan Profile" style="rounded=0;whiteSpace=wrap;html=1;" vertex="1" parent="WIyWlLk6GJQsqaUBKTNV-1">
          <mxGeometry x="2060" y="180" width="120" height="60" as="geometry" />
        </mxCell>
        <mxCell id="QP5sZflzTYetgTL0sqqq-58" style="edgeStyle=orthogonalEdgeStyle;rounded=0;orthogonalLoop=1;jettySize=auto;html=1;" edge="1" parent="WIyWlLk6GJQsqaUBKTNV-1" source="QP5sZflzTYetgTL0sqqq-40" target="QP5sZflzTYetgTL0sqqq-50">
          <mxGeometry relative="1" as="geometry" />
        </mxCell>
        <mxCell id="QP5sZflzTYetgTL0sqqq-40" value="Exit" style="rounded=0;whiteSpace=wrap;html=1;fillColor=#e3c800;fontColor=#000000;strokeColor=#B09500;" vertex="1" parent="WIyWlLk6GJQsqaUBKTNV-1">
          <mxGeometry x="2440" y="-150" width="120" height="60" as="geometry" />
        </mxCell>
        <mxCell id="QP5sZflzTYetgTL0sqqq-61" style="edgeStyle=orthogonalEdgeStyle;rounded=0;orthogonalLoop=1;jettySize=auto;html=1;entryX=0.5;entryY=0;entryDx=0;entryDy=0;" edge="1" parent="WIyWlLk6GJQsqaUBKTNV-1" source="QP5sZflzTYetgTL0sqqq-41" target="QP5sZflzTYetgTL0sqqq-49">
          <mxGeometry relative="1" as="geometry" />
        </mxCell>
        <mxCell id="QP5sZflzTYetgTL0sqqq-41" value="Pengaturan" style="rounded=0;whiteSpace=wrap;html=1;fillColor=#e3c800;fontColor=#000000;strokeColor=#B09500;" vertex="1" parent="WIyWlLk6GJQsqaUBKTNV-1">
          <mxGeometry x="2260" y="-130" width="120" height="60" as="geometry" />
        </mxCell>
        <mxCell id="QP5sZflzTYetgTL0sqqq-59" style="edgeStyle=orthogonalEdgeStyle;rounded=0;orthogonalLoop=1;jettySize=auto;html=1;entryX=1;entryY=1;entryDx=0;entryDy=0;" edge="1" parent="WIyWlLk6GJQsqaUBKTNV-1" source="QP5sZflzTYetgTL0sqqq-49" target="VR8ZNbH8dyByt77pERlR-148">
          <mxGeometry relative="1" as="geometry">
            <Array as="points">
              <mxPoint x="2320" y="3418" />
            </Array>
          </mxGeometry>
        </mxCell>
        <mxCell id="QP5sZflzTYetgTL0sqqq-49" value="Tampilan Pengturan" style="rounded=0;whiteSpace=wrap;html=1;" vertex="1" parent="WIyWlLk6GJQsqaUBKTNV-1">
          <mxGeometry x="2260" y="180" width="120" height="60" as="geometry" />
        </mxCell>
        <mxCell id="QP5sZflzTYetgTL0sqqq-60" style="edgeStyle=orthogonalEdgeStyle;rounded=0;orthogonalLoop=1;jettySize=auto;html=1;entryX=0.5;entryY=1;entryDx=0;entryDy=0;" edge="1" parent="WIyWlLk6GJQsqaUBKTNV-1" source="QP5sZflzTYetgTL0sqqq-50" target="VR8ZNbH8dyByt77pERlR-148">
          <mxGeometry relative="1" as="geometry">
            <mxPoint x="2420" y="3476.25" as="targetPoint" />
            <Array as="points">
              <mxPoint x="2500" y="3450" />
              <mxPoint x="420" y="3450" />
            </Array>
          </mxGeometry>
        </mxCell>
        <mxCell id="QP5sZflzTYetgTL0sqqq-50" value="Tampilan Exit" style="rounded=0;whiteSpace=wrap;html=1;" vertex="1" parent="WIyWlLk6GJQsqaUBKTNV-1">
          <mxGeometry x="2440" y="180" width="120" height="60" as="geometry" />
        </mxCell>
      </root>
    </mxGraphModel>
  </diagram>
</mxfile>
